<?xml version="1.0" encoding="utf-8"?>
<!-- Generator: Adobe Illustrator 25.4.1, SVG Export Plug-In . SVG Version: 6.00 Build 0)  -->
<svg version="1.1" id="Layer_1" xmlns="http://www.w3.org/2000/svg" xmlns:xlink="http://www.w3.org/1999/xlink" x="0px" y="0px"
	 width="1402.6px" height="1406px" viewBox="0 0 1402.6 1406" style="enable-background:new 0 0 1402.6 1406;" xml:space="preserve"
	>
<style type="text/css">
	.st0{fill:#F58220;}
</style>
<g>
	<g id="Group_18" transform="translate(0 0)">
		<path id="Path_120" class="st0" d="M701.3,1406c-93.8,0.2-186.7-18.6-273-55.3c-83.4-35.3-159.1-86.5-222.9-150.6
			c-64.1-64.1-115.1-139.9-150.3-223.4C18.6,890.1-0.2,797,0,703c-0.2-94,18.6-187.1,55.1-273.7c35.2-83.5,86.2-159.4,150.3-223.4
			c63.8-64.2,139.5-115.3,222.9-150.6C514.6,18.6,607.5-0.2,701.3,0c93.8-0.2,186.7,18.6,273,55.3c83.4,35.3,159,86.5,222.9,150.6
			c64.1,64.1,115.1,139.9,150.3,223.4c36.6,86.6,55.3,179.7,55.1,273.7c0.2,94-18.6,187.1-55.1,273.7
			c-35.2,83.5-86.2,159.4-150.3,223.4c-63.8,64.2-139.5,115.3-222.9,150.6C887.9,1387.4,795.1,1406.2,701.3,1406z M701.3,149.6
			c-304.4,0-552.1,248.3-552.1,553.4s247.7,553.4,552.1,553.4s552.1-248.3,552.1-553.4S1005.7,149.6,701.3,149.6L701.3,149.6z"/>
	</g>
	<g>
		<path d="M110.7,810.1l0.5-0.1l4.8,21.1c0.9,4.1,1.3,7.7,1.1,11c-0.2,3.2-1.1,6.7-2.9,10.5c-1.7,3.7-4.2,7-7.4,9.8
			c-3.2,2.8-6.7,4.6-10.6,5.5c-4.2,0.9-8.6,0.7-13.3-0.9c-4.7-1.5-8.9-4.2-12.5-8.2c-3.6-3.9-6.1-8.8-7.4-14.5
			c-1.2-5.2-1.3-10.9-0.3-17.1l5.6-3.5l0.1,0.5c-1.9,2.4-3.3,5.3-4.1,8.8c-0.8,3.5-0.8,7.2,0.1,11.1c1.5,6.8,5.3,11.7,11.4,14.9
			c6.1,3.2,12.9,3.9,20.4,2.2c3.1-0.7,5.8-1.7,8.1-3c2.3-1.3,4.4-3.2,6.4-5.7c1.9-2.5,3.2-5,3.8-7.5c0.6-2.5,0.8-5.2,0.6-8.1
			c-0.2-2.9-0.5-5.1-0.9-6.8l-0.7-2.8c-0.8-3.2-1.6-5.1-2.2-5.8c-0.7-0.7-2-0.8-3.9-0.4l-7.9,1.8c-1.5,0.3-2.5,0.9-2.9,1.7
			c-0.4,0.8-0.4,1.7-0.1,2.9l-0.5,0.1L93,814.1l0.5-0.1c0.3,1.5,0.9,2.5,1.6,2.8c0.7,0.4,1.9,0.4,3.6,0l8.2-1.9
			c1.7-0.4,2.8-0.9,3.4-1.5c0.6-0.6,0.8-1.5,0.5-2.6L110.7,810.1z"/>
		<path d="M58,813.9l-0.5,0.1l-2-15.1c-0.5-3.8-0.8-6.6-0.8-8.4c-0.1-1.7,0.3-3.6,1-5.5c0.7-1.9,1.8-3.4,3.3-4.6
			c1.5-1.1,3.5-1.8,5.8-2.2c2.7-0.4,5.4,0.1,8.1,1.4c2.7,1.3,5,3.3,7.1,6.1l5.3-4.5c1.3-1,4.2-3.6,8.7-7.8c4.4-4.2,7.1-7.3,7.9-9.4
			c0.8-2.1,1.1-4,0.9-5.8c-0.2-1.8-1.2-3.7-2.9-5.9l0.7-0.3c2.7,2.6,4.4,6.2,5,10.8c0.4,3.1-0.2,5.9-1.7,8.3c-1.5,2.5-6,7-13.5,13.5
			c0,0.1-0.1,0.1-0.1,0.1l-7.6,6.4l0.8,4.7l0.6,4.3l20.4-2.7c1.6-0.2,2.8-0.6,3.4-1.1c0.7-0.5,0.9-1.6,0.7-3.3l0.5-0.1l1.8,13.8
			l-0.5,0.1c-0.3-1.7-0.8-2.7-1.5-3.1c-0.7-0.3-2.1-0.4-4.1-0.1l-42.4,5.5c-1.4,0.2-2.5,0.5-3.3,1C58.1,810.9,57.7,812.1,58,813.9z
			 M57.5,803.8l25-3.3l-0.7-5.6c-0.6-4.4-2-7.5-4.4-9.4c-2.4-1.9-5.2-2.6-8.6-2.1c-3.3,0.4-6.3,1.9-8.9,4.4s-3.6,6.3-3,11.6
			L57.5,803.8z"/>
		<path d="M77.7,722l0.6,15.8L99,745c1.5,0.5,2.4,0.7,2.7,0.7c0.8,0,1.2-0.6,1.1-1.8l0.5,0l0.3,8l-0.5,0c0-1.1-0.3-2-0.9-2.7
			s-1.9-1.5-4.2-2.2l-49.9-17.5l0-1l46.7-21.1c0.2,0,1.4-0.5,3.4-1.6c2-1.1,3-2.6,2.9-4.6l0.5,0l0.5,12.5l-0.5,0
			c0-1.1-0.5-1.7-1.4-1.7c-0.6,0-1.6,0.3-2.9,1c-0.1,0.1-0.2,0.2-0.5,0.3c-0.2,0.1-0.4,0.1-0.4,0.1L77.7,722z M76.9,737.3l-0.6-14.5
			l-18,8L76.9,737.3z"/>
		<path d="M48.8,697l-0.5,0l0.5-15.3c0.2-5.4,0.9-9.4,2.2-11.8c1.3-2.4,2.9-4.2,4.7-5.2c1.9-1.1,4.3-1.6,7.2-1.4
			c4.6,0.2,7.9,1.8,10.1,5.1c2.2,3.2,3.1,7.5,2.8,12.9l-0.5,0c0.1-3.4-0.8-6.2-2.8-8.4c-2-2.2-4.7-3.4-8.1-3.5
			c-2.7-0.1-5,0.3-7.1,1.3c-2.1,1-3.7,2.4-4.8,4.2c-1.1,1.8-1.8,4.7-1.9,8.5l-0.1,3.8l46,1.6c2.6,0.1,4.2-0.1,4.7-0.7
			s0.8-1.7,0.9-3.3l0.5,0l-0.5,14.2l-0.5,0c0.1-2.5-1-3.8-3.3-3.9l-44.5-1.5c-1.9-0.1-3.2,0.1-3.8,0.6
			C49.2,694.4,48.9,695.4,48.8,697z"/>
		<path d="M81,617.9l-3.3,29.3l20.5,2.3c1.9,0.2,3.2,0.3,3.7,0.1s1-0.4,1.5-0.9c0.4-0.5,0.7-1.3,0.8-2.5l0.5,0.1l-1.6,13.8l-0.5-0.1
			c0.5-2.5-0.6-3.9-3.2-4.2l-43-4.9c-2.4-0.3-4-0.3-4.7,0.1c-0.7,0.3-1.2,1.3-1.4,3.1l-0.5-0.1l1.6-13.8l0.5,0.1
			c-0.1,1.5,0.1,2.6,0.5,3.2c0.4,0.6,1.4,1,2.9,1.1l20.9,2.4l3.3-29.3l-19.1-2.2c-2.2-0.2-3.7-0.2-4.5,0.1c-0.8,0.3-1.3,1.3-1.5,3
			l-0.5-0.1l1.5-13.6l0.5,0.1c-0.1,1.1-0.1,1.9,0.1,2.5c0.2,0.6,0.5,1,1.1,1.2c0.5,0.3,1.9,0.5,4,0.7l41,4.6c2.1,0.2,3.4,0.3,4,0.2
			c0.5-0.1,1-0.4,1.4-0.9c0.4-0.4,0.7-1.2,0.8-2.4l0.5,0.1l-1.5,13.6l-0.5-0.1c0.2-1.5,0-2.5-0.6-3.1s-2.1-1-4.8-1.3L81,617.9z"/>
		<path d="M59.5,583l0.5,0.1c-0.2,0.7-0.2,1.5-0.1,2.4c0.1,0.9,0.5,1.5,1,1.7c0.5,0.3,1.8,0.6,3.9,0.9l40.6,7.2
			c2.2,0.4,3.6,0.5,4.1,0.4c0.5-0.1,1-0.4,1.4-0.8c0.4-0.5,0.7-1.3,1-2.7l0.5,0.1l-2.5,14.1l-0.5-0.1c0.3-1.8,0.2-2.9-0.4-3.5
			c-0.6-0.6-2.1-1-4.5-1.5l-40.2-7.1c-2.5-0.4-4.2-0.5-5.1-0.2c-0.9,0.3-1.4,1.4-1.6,3.1l-0.5-0.1L59.5,583z"/>
		<path d="M74.1,530.6l6-0.6l-0.1,0.5c-6.3,3.8-10.2,9.2-11.9,16c-1.7,7.1-1,13.4,2.2,18.8c3.2,5.4,7.8,8.8,13.8,10.3
			c3.7,0.9,8.2,1,13.5,0.2c5.3-0.8,10-2.9,14.1-6.4c4.1-3.5,6.9-8.2,8.4-14.2c1-3.9,1.3-7.9,0.9-12c-0.4-4.1-1.4-7.3-3-9.7l0.3-0.4
			l4.7,5c-0.2,6.2-0.3,10.2-0.5,12.1c-0.2,1.8-0.6,4.2-1.4,7.2c-2.7,11-7.1,18.2-13.3,21.7c-6.2,3.5-12.9,4.4-19.9,2.7
			c-4.8-1.2-9.1-3.5-12.9-7c-3.8-3.5-6.5-7.8-7.9-13c-1.4-5.2-1.4-10.7,0-16.6c0.7-2.9,1.6-5.4,2.6-7.4s2-3.7,2.9-4.9l1.5-2.1
			C74.1,530.7,74.1,530.6,74.1,530.6z"/>
		<path d="M84.3,491.8l7.2-0.4l-0.1,0.4c0,0-0.9,0.4-2.7,1.3c-1.8,0.8-3.3,2-4.5,3.4c-1.3,1.4-2.2,3.2-2.9,5.3
			c-1.1,3.5-1,6.6,0.3,9.3c1.3,2.7,3.4,4.5,6.2,5.4c1.9,0.6,3.7,0.7,5.4,0.2s3.7-2.1,5.9-4.7c3.5-4.7,6-7.8,7.5-9.5
			c1.5-1.6,3.6-3,6.3-4.1c2.7-1.1,5.7-1.1,9.1,0c1.4,0.5,2.7,1,3.8,1.8c1.2,0.7,2.2,1.7,3.1,2.7c0.9,1.1,1.7,2.3,2.3,3.6
			c0.6,1.3,1,2.6,1.2,3.8c0.2,1.2,0,3-0.5,5.3c-0.5,2.3-0.8,3.9-1.1,4.6l-4.4,13.6l-14.9-4.8l0.2-0.5c4.9,1.6,8.8,1.5,11.4-0.1
			c2.7-1.6,4.8-4.8,6.4-9.6c1.4-4.4,1.5-8,0.1-10.9c-1.3-2.9-3.4-4.9-6.3-5.8c-1.8-0.6-3.4-0.7-4.9-0.3c-1.5,0.4-2.9,1.1-4.3,2.2
			c-1.4,1.1-3.4,3.4-6,6.9c-2.6,3.5-4.7,5.8-6.3,7.1c-1.5,1.3-3.5,2.1-5.9,2.5c-2.4,0.4-4.7,0.2-6.9-0.5c-4-1.3-6.8-3.7-8.6-7.3
			c-1.8-3.6-2-7.6-0.5-12c0.6-1.7,1.4-3.5,2.4-5.4c1-1.9,1.7-2.9,1.8-3.1C84.2,491.9,84.3,491.9,84.3,491.8z"/>
		<path d="M96.5,457.4l-0.5-0.2l10.3-22.4c2.6-5.7,5.1-10,7.6-12.9c2.4-2.9,5.2-5.1,8.2-6.7c3.1-1.6,6.4-2.4,10.1-2.4
			c3.7-0.1,7.3,0.8,11,2.5c3.6,1.6,6.7,4,9.5,7.1c2.8,3.1,4.8,6.5,6.1,10.2c1.3,3.7,1.8,7.2,1.4,10.5c-0.4,3.3-2,7.9-4.7,13.8
			l-10.6,23l-0.5-0.2l0.3-0.6c0.5-1.2,0.4-2.2-0.4-3c-0.8-0.8-2.4-1.8-5-3l-35.6-16.4c-2.7-1.2-4.4-1.7-5.1-1.5
			C97.8,455.1,97.1,456,96.5,457.4z M104.7,441l-3.4,7.5l37.9,17.4c2.4,1.1,4.3,1.5,5.9,1.2c1.5-0.3,3-1.3,4.4-3
			c1.4-1.7,2.9-4.2,4.4-7.5c4.2-9.2,4.8-16.7,1.8-22.5c-3-5.9-7.3-10.1-12.8-12.6c-6.5-3-13.3-3.1-20.5-0.2
			C115.3,424.2,109.4,430.8,104.7,441z"/>
		<path d="M125.2,397.3l-0.5-0.3l16.7-29.4l6.4,3.7l-0.3,0.5c-2.8-0.7-4.5-1-5.1-0.8c-0.7,0.2-1.5,1.1-2.4,2.8l-8.7,15.4l21,11.9
			l8.1-14.3c0.8-1.4,1.2-2.4,1.1-2.9c0-0.5-0.3-1-0.8-1.3l0.3-0.5l4.4,2.5l-0.3,0.5c-0.7-0.2-1.2-0.2-1.7,0c-0.4,0.3-1,0.9-1.6,2
			l-8.3,14.7l14.5,8.2c2.2,1.2,3.9,1.9,5.1,2.1c1.2,0.1,2.2-0.2,2.9-0.9c0.7-0.7,1.6-2,2.6-3.8l4.7-8.2c1.5-2.6,2.3-4.3,2.6-5.2
			s0.2-1.7,0-2.5c-0.2-0.8-1.2-1.9-2.9-3.2l0.3-0.5l6.4,3.6l-18.1,32l-0.5-0.3c0.5-1.1,0.8-2.1,0.8-2.8c0-0.8-0.8-1.6-2.2-2.4
			l-37.8-21.4c-1.7-1-3-1.5-3.9-1.6C127,394.9,126.1,395.7,125.2,397.3z"/>
		<path d="M160.8,338.4l7,1.5l-0.2,0.4c0,0-1,0.2-2.9,0.5c-1.9,0.4-3.7,1.1-5.3,2.1c-1.6,1-3,2.5-4.2,4.3c-2,3.1-2.7,6.1-2.1,9
			c0.6,3,2.1,5.2,4.6,6.9c1.7,1.1,3.4,1.6,5.2,1.6c1.8,0,4.1-1.1,6.9-3.1c4.6-3.6,7.8-6,9.7-7.2c1.9-1.2,4.3-2,7.2-2.3
			c2.9-0.4,5.8,0.4,8.8,2.3c1.2,0.8,2.3,1.7,3.2,2.7c0.9,1,1.7,2.2,2.3,3.5c0.6,1.3,1.1,2.7,1.3,4.1c0.3,1.4,0.3,2.8,0.2,4
			c-0.2,1.2-0.8,2.9-1.8,5c-1.1,2.1-1.8,3.5-2.2,4.1l-7.8,12l-13.1-8.5l0.3-0.5c4.4,2.8,8.1,3.7,11.1,2.9c3-0.9,5.9-3.4,8.7-7.7
			c2.5-3.8,3.5-7.3,3-10.5c-0.5-3.2-2.1-5.6-4.6-7.2c-1.5-1-3.1-1.5-4.6-1.5c-1.5,0-3.1,0.3-4.8,1c-1.6,0.7-4.2,2.4-7.6,5.1
			c-3.5,2.7-6.1,4.4-7.9,5.2c-1.8,0.8-3.9,1.1-6.4,0.8c-2.4-0.2-4.6-1-6.5-2.2c-3.5-2.3-5.6-5.4-6.4-9.3c-0.8-3.9,0.1-7.9,2.6-11.7
			c1-1.5,2.2-3,3.7-4.6c1.5-1.5,2.4-2.4,2.6-2.5C160.7,338.6,160.8,338.5,160.8,338.4z"/>
		<path d="M175.2,317l0.4,0.3c-0.5,0.5-0.8,1.2-1.1,2.1c-0.3,0.9-0.2,1.5,0.1,2c0.4,0.5,1.4,1.3,3.1,2.5l33.5,24.1
			c1.8,1.3,3,2,3.5,2.2c0.5,0.1,1.1,0.1,1.6-0.1c0.6-0.2,1.2-0.9,2-2l0.4,0.3l-8.4,11.7l-0.4-0.3c1.1-1.5,1.4-2.6,1.1-3.3
			c-0.3-0.8-1.5-1.9-3.5-3.3l-33.2-23.8c-2.1-1.5-3.6-2.3-4.5-2.3c-0.9-0.1-1.8,0.6-2.8,2.1l-0.4-0.3L175.2,317z"/>
		<path d="M254.1,303.2l0.4,0.3l-13.7,16.8c-2.6,3.2-5.3,5.8-8,7.6c-2.7,1.9-6,3.2-10,4.2c-4,0.9-8.1,1-12.3,0.2
			c-4.2-0.8-7.8-2.5-10.8-4.9c-3.3-2.7-5.8-6.4-7.5-11c-1.7-4.6-2.1-9.6-1.2-14.9c0.9-5.3,3.2-10.2,6.9-14.8
			c3.3-4.1,7.8-7.7,13.3-10.8l6.2,2.2l-0.3,0.4c-3-0.1-6.2,0.7-9.5,2.2c-3.3,1.5-6.2,3.8-8.7,6.9c-4.4,5.4-6,11.4-4.7,18.2
			c1.2,6.7,4.9,12.5,10.9,17.4c2.5,2,4.9,3.6,7.4,4.6c2.4,1,5.2,1.5,8.4,1.5c3.2,0,5.9-0.5,8.3-1.6c2.4-1.1,4.6-2.5,6.7-4.5
			c2.1-1.9,3.7-3.5,4.8-4.9l1.8-2.3c2-2.6,3-4.4,3.2-5.3c0.1-0.9-0.6-2-2.1-3.3l-6.3-5.1c-1.2-1-2.3-1.4-3.1-1.3
			c-0.8,0.2-1.6,0.7-2.3,1.7l-0.4-0.3l8.8-10.8l0.4,0.3c-1,1.2-1.4,2.2-1.3,3c0.1,0.8,0.9,1.7,2.2,2.8l6.5,5.3
			c1.3,1.1,2.4,1.7,3.3,1.8c0.9,0.1,1.7-0.3,2.4-1.2L254.1,303.2z"/>
		<path d="M249.3,232.1l7.3-7.4l0.4,0.4c-1.1,1.2-1.6,2.2-1.6,3c0,0.9,0.7,2,2.2,3.4l34.8,34.4l-62.6-1.6l28.3,28
			c0.9,0.9,1.6,1.5,2.2,1.8c0.6,0.3,1.1,0.4,1.5,0.3c0.4-0.1,1.2-0.6,2.4-1.5l0.4,0.4l-7.3,7.3l-0.4-0.4c1.3-1.3,1.9-2.4,1.7-3.1
			c-0.2-0.8-1.1-2-2.9-3.8l-25.9-25.6c-2.3-2.2-4.4-3.8-6.5-4.5c-2.1-0.8-4.2,0-6.3,2.4l-0.4-0.4l7.1-7.2l58.9,1.5l-27-26.7
			c-1.5-1.4-2.6-2.1-3.4-1.9c-0.8,0.2-1.7,0.7-2.5,1.5L249.3,232.1z"/>
		<path d="M284,205.9l4-3.3l40.7,48.8l-4,3.3L284,205.9z"/>
		<path d="M311.6,180l-0.3-0.4l27.8-19.7l3.7,5.2l-0.4,0.3l-0.1-0.2c-0.1,0-0.1-0.1-0.2-0.1c-1.5-1.2-2.7-1.8-3.6-1.6
			c-1,0.2-2.2,0.8-3.6,1.8l-14.2,10l13.7,19.3l13.2-9.3c1.1-0.8,1.8-1.4,2.1-1.9c0.3-0.5,0.2-1-0.1-1.7l0.4-0.3l3,4.2l-0.4,0.3
			c-0.7-1-1.7-1.1-3-0.1l-14.2,10.1l12.4,17.5c1.2,1.6,2.2,2.5,3,2.6c0.8,0.1,1.9-0.3,3.1-1.1l0.3,0.4l-11.5,8.2L342,223
			c1.4-1,2-1.8,2-2.6s-0.3-1.6-1-2.6l-25.6-36.1c-1-1.5-2-2.3-2.8-2.6C313.9,178.9,312.8,179.2,311.6,180z"/>
		<path d="M344.9,156.4l-0.3-0.5l13.1-7.8c3.3-2,5.8-3.3,7.3-4.1c1.6-0.7,3.4-1.2,5.4-1.3s3.9,0.3,5.5,1.3s3.1,2.4,4.3,4.5
			c1.4,2.3,2,5,1.9,8c-0.1,3-1.1,5.9-2.8,8.9l6.2,3.1c1.5,0.8,5,2.5,10.6,4.9c5.6,2.4,9.5,3.6,11.7,3.5c2.2-0.1,4.1-0.6,5.7-1.5
			c1.5-0.9,3-2.6,4.3-5l0.6,0.5c-1.3,3.5-3.9,6.5-7.9,8.9c-2.7,1.6-5.4,2.2-8.3,1.7c-2.9-0.4-8.8-2.8-17.8-7.1c-0.1,0-0.1,0-0.1-0.1
			l-8.9-4.4l-4,2.6l-3.7,2.2l10.5,17.7c0.8,1.4,1.6,2.3,2.4,2.7c0.7,0.4,1.8,0.2,3.3-0.7l0.3,0.5l-11.9,7.1l-0.3-0.5
			c1.4-0.9,2.2-1.8,2.2-2.6c0-0.8-0.5-2-1.5-3.8l-21.9-36.7c-0.7-1.2-1.5-2.1-2.2-2.7C347.7,155.3,346.5,155.4,344.9,156.4z
			 M354,152l12.9,21.7l4.8-2.9c3.8-2.3,6.1-4.9,6.9-7.8c0.8-2.9,0.3-5.8-1.5-8.7c-1.7-2.8-4.2-5-7.5-6.5c-3.3-1.5-7.3-0.8-11.8,1.9
			L354,152z"/>
		<path d="M415.8,115.3c6.8-3.3,13.3-4,19.7-2c6.3,2,11,6.1,14,12.3c3.9,7.9,4.7,15.8,2.3,23.7c-2.3,7.9-7.6,13.8-15.9,17.8
			c-6.7,3.3-13.2,3.8-19.6,1.5c-6.4-2.3-11.1-6.5-14.1-12.6c-2-4.1-3.1-8.9-3.1-14.2c-0.1-5.4,1.3-10.4,4.1-15.2
			C405.9,121.9,410.1,118.1,415.8,115.3z M438.7,162.6c3.3-1.6,6.2-4.1,8.5-7.5c2.4-3.4,3.7-7.1,4-11.1c0.3-4-0.3-7.7-1.9-11
			c-2.3-4.7-5.6-8.3-10-10.9c-4.4-2.6-9.1-4-14.1-4.2c-5-0.2-9.3,0.5-12.7,2.2c-4.8,2.3-8.2,6.3-10.4,11.8c-2.1,5.5-1.9,11,0.7,16.3
			c3.3,6.8,8.7,11.7,16,14.5C426.2,165.6,432.8,165.5,438.7,162.6z"/>
		<path d="M489.3,85.7l9.8-3.6l0.2,0.5c-1.5,0.6-2.4,1.3-2.7,2.1c-0.4,0.8-0.2,2.1,0.5,4l17.1,45.9L458,106.7l13.9,37.3
			c0.4,1.2,0.9,2,1.3,2.5c0.4,0.5,0.8,0.8,1.2,0.9c0.4,0.1,1.3,0,2.8-0.3l0.2,0.5l-9.7,3.6l-0.2-0.5c1.7-0.6,2.7-1.4,2.9-2.1
			c0.2-0.8-0.1-2.3-1-4.6l-12.7-34.1c-1.1-3-2.4-5.3-4-6.9c-1.5-1.6-3.8-1.7-6.7-0.5l-0.2-0.5l9.5-3.5l52.7,26.2L494.7,89
			c-0.7-1.9-1.5-3-2.3-3.1c-0.8-0.2-1.8-0.1-2.9,0.3L489.3,85.7z"/>
		<path d="M548,66.5l-0.7,6.9l-0.5,0.1c0-0.4-0.1-0.9-0.3-1.6c-0.1-0.5-0.4-0.8-0.9-0.9c-0.4,0-1.1,0-1.9,0.3l-13.5,3.7l12.3,44.3
			c0.5,1.8,1,3,1.5,3.6c0.5,0.6,1,0.9,1.5,0.9c0.6,0,1.4-0.1,2.5-0.4l0.1,0.5l-14,3.9l-0.1-0.5c1.7-0.6,2.7-1.2,3-1.9
			c0.3-0.7,0.2-1.9-0.3-3.7l-12.5-45.1l-13,3.6c-1.3,0.4-2.1,0.7-2.5,0.9c-0.4,0.3-0.5,0.7-0.3,1.3c0.1,0.3,0.3,0.7,0.7,1.3
			l-0.5,0.1l-4.2-5.6l0.5-0.1c0.7,0.7,1.2,1.1,1.7,1.2c0.5,0.1,1.4-0.1,2.7-0.5l34.4-9.5c1.4-0.4,2.3-0.7,2.9-1.1
			c0.5-0.3,0.8-1,0.9-1.9L548,66.5z"/>
		<path d="M553.7,96.7l-0.7-3l15-3.4l0.7,3L553.7,96.7z"/>
		<path d="M568.8,64.6l-0.1-0.6l33.3-6l1.3,7.3l-0.5,0.1c-1.2-2.6-2.1-4.1-2.7-4.5c-0.6-0.4-1.8-0.4-3.7-0.1L578.9,64l4.3,23.8
			l16.2-2.9c1.6-0.3,2.6-0.6,3-1c0.4-0.4,0.5-0.9,0.4-1.4l0.5-0.1l0.9,5l-0.5,0.1c-0.2-0.7-0.6-1.1-1.1-1.2
			c-0.5-0.2-1.3-0.1-2.5,0.1l-16.6,3l2.9,16.4c0.4,2.5,1,4.2,1.6,5.2c0.6,1,1.5,1.6,2.5,1.7c1,0.1,2.6,0,4.6-0.4l9.3-1.7
			c3-0.5,4.8-1,5.6-1.3c0.8-0.4,1.4-0.9,1.9-1.6c0.5-0.7,0.7-2.1,0.6-4.2l0.5-0.1l1.3,7.3l-36.2,6.5l-0.1-0.5
			c1.2-0.3,2.1-0.7,2.7-1.2c0.6-0.5,0.7-1.6,0.4-3.2l-7.7-42.7c-0.3-1.9-0.8-3.3-1.2-4C571.8,64.5,570.6,64.3,568.8,64.6z"/>
		<path d="M655.8,52l10.4-1l0.1,0.5c-1.6,0.2-2.6,0.6-3.2,1.3s-0.7,2-0.5,4l4.7,48.7l-47.1-41.3l3.8,39.6c0.1,1.3,0.3,2.2,0.6,2.8
			c0.3,0.6,0.6,1,1,1.2c0.4,0.2,1.3,0.3,2.8,0.4l0.1,0.5l-10.3,1l-0.1-0.5c1.8-0.2,3-0.6,3.3-1.3c0.4-0.7,0.5-2.3,0.2-4.7L618,66.9
			c-0.3-3.2-1-5.7-2.1-7.6c-1.1-1.9-3.2-2.7-6.4-2.2l-0.1-0.5l10.1-1l44.3,38.8l-3.7-37.8c-0.2-2-0.7-3.2-1.5-3.6
			c-0.8-0.4-1.7-0.5-2.9-0.4L655.8,52z"/>
		<path d="M675.6,51l0-0.5l24.7,0.1c6.3,0,11.2,0.5,14.9,1.5c3.6,1,6.8,2.6,9.5,4.7c2.7,2.1,4.8,4.8,6.4,8.1c1.6,3.3,2.3,7,2.3,11.1
			c0,3.9-0.8,7.8-2.5,11.5c-1.7,3.8-3.9,7-6.7,9.8c-2.8,2.7-5.8,4.6-8.9,5.6c-3.1,1-8,1.5-14.5,1.5l-25.3-0.1l0-0.5l0.7,0
			c1.3,0,2.2-0.5,2.6-1.6c0.4-1.1,0.6-3,0.6-5.7l0.1-39.1c0-2.9-0.2-4.7-0.7-5.3C678.2,51.3,677.2,51,675.6,51z M693.9,51.7l-8.3,0
			l-0.1,41.7c0,2.6,0.4,4.6,1.3,5.9c0.9,1.3,2.4,2.2,4.5,2.8c2.1,0.6,5,0.9,8.6,0.9c10.1,0,17.2-2.5,21.3-7.7
			c4.1-5.2,6.2-10.8,6.2-16.9c0-7.2-2.7-13.4-8.3-18.7C713.6,54.4,705.2,51.7,693.9,51.7z"/>
		<path d="M766.2,57.2l5.2,0.5l-6.6,63.2l-5.2-0.5L766.2,57.2z"/>
		<path d="M804.5,59l0.1-0.5l13.7,2.6c4,0.8,6.8,1.5,8.4,2.1c1.6,0.7,3.1,1.6,4.4,2.8c1.4,1.2,2.4,2.8,3.1,4.8
			c0.7,2,0.9,4.1,0.5,6.4c-0.8,4.5-3.7,7.6-8.6,9.3c3.7,1.4,6.3,3.5,7.7,6.3c1.5,2.9,1.9,6.1,1.2,9.6c-0.6,3.3-2,6.2-4.2,8.6
			c-2.2,2.4-4.4,3.9-6.7,4.4c-2.3,0.5-5.4,0.4-9.2-0.4l-20.4-3.9l0.1-0.5c1.6,0.3,2.7,0.2,3.3-0.4c0.6-0.6,1.1-2.2,1.6-4.9l7.5-39.8
			c0.4-1.9,0.6-3.2,0.6-3.9c0-0.7-0.2-1.3-0.8-1.7C806.4,59.5,805.6,59.2,804.5,59z M813.7,86.5l-4.1-0.8l-3.2,16.8
			c-0.4,2.3-0.6,3.8-0.6,4.6c0,0.7,0.3,1.5,0.8,2.4c0.5,0.9,1.4,1.7,2.7,2.4c1.3,0.7,3.3,1.4,6,1.9c4.1,0.8,7.2,0.4,9.3-1.2
			c2.1-1.6,3.4-4.2,4.1-8c0.7-3.9,0.6-7.2-0.5-9.9c-1-2.7-2.5-4.5-4.3-5.4C822.2,88.4,818.8,87.5,813.7,86.5z M814.2,61.4l-4.4,23.2
			l6.4,1.2c4.4,0.8,7.5,0.1,9.4-2.1c1.9-2.2,3.1-4.6,3.5-7c0.5-2.7,0.4-5-0.4-7c-0.8-2-2.1-3.6-4.1-5c-1.9-1.3-5-2.4-9.1-3.1
			L814.2,61.4z"/>
		<path d="M867.4,102l-15.2-4.1l-13.1,17.5c-0.9,1.3-1.4,2.1-1.5,2.4c-0.2,0.8,0.3,1.3,1.4,1.6l-0.1,0.5l-7.7-2.1l0.1-0.5
			c1,0.3,2,0.3,2.8-0.1c0.8-0.3,2-1.4,3.4-3.3L869,71.5l0.9,0.2l6.3,50.8c-0.1,0.2,0.1,1.5,0.5,3.7c0.4,2.2,1.6,3.6,3.5,4.1
			l-0.1,0.5l-12.1-3.2l0.1-0.5c1.1,0.3,1.8,0,2-0.9c0.2-0.6,0.1-1.6-0.1-3c-0.1-0.1-0.1-0.3-0.1-0.5c0-0.2,0-0.4,0-0.4L867.4,102z
			 M853.1,96.6l14.1,3.8l-2.3-19.6L853.1,96.6z"/>
		<path d="M940.4,98.4l0,6l-0.5-0.2c-3.1-6.6-8-11.2-14.7-13.5c-6.9-2.5-13.2-2.4-18.9,0.1c-5.7,2.6-9.6,6.8-11.7,12.6
			c-1.3,3.6-1.8,8.1-1.6,13.4c0.2,5.4,1.8,10.3,4.8,14.7c3,4.5,7.4,7.8,13.2,9.9c3.8,1.4,7.7,2.1,11.8,2.2c4.1,0.1,7.4-0.6,9.9-2
			l0.4,0.3l-5.5,4.2c-6.2-0.8-10.1-1.4-11.9-1.8c-1.8-0.4-4.1-1.1-7-2.1c-10.6-3.8-17.3-9-20.1-15.6c-2.8-6.6-3-13.3-0.5-20.1
			c1.7-4.6,4.4-8.7,8.3-12.1c3.9-3.4,8.5-5.6,13.8-6.4c5.3-0.9,10.8-0.3,16.5,1.8c2.8,1,5.2,2.2,7.1,3.4c1.9,1.3,3.4,2.4,4.6,3.5
			l2,1.7C940.3,98.4,940.4,98.4,940.4,98.4z"/>
		<path d="M955,101.2l13.9,6.6l-0.2,0.5c-1.5-0.8-2.7-1.1-3.5-0.8c-0.9,0.2-1.8,1.4-2.8,3.6l-8.8,18.6l39.1-8
			c0.8-0.1,1.2-0.4,1.4-0.7c0.2-0.4-0.4-0.9-1.7-1.5l0.2-0.5l10.5,5l-0.2,0.5c-2.7-1.2-5.7-1.4-9.1-0.8l-34.1,6.8l16,31
			c0,0,0,0.1,0.1,0.1c0,0,0.1,0.1,0.1,0.1c0,0,0.1,0.1,0.1,0.1c2.1,4,3.9,7,5.2,8.8c1.3,1.9,2.8,3.2,4.4,3.9l-0.2,0.5l-16.5-7.8
			l0.2-0.5c1.5,0.7,2.3,0.9,2.4,0.6c0.1-0.3-0.2-1.2-1-2.7l-17.5-33.9l-8.6,18c-1,2.1-1.5,3.5-1.4,4.1c0.1,0.6,0.3,1.2,0.7,1.6
			s1.2,0.9,2.3,1.4l-0.2,0.5l-13.9-6.6l0.2-0.5c1.8,1,3.1,1.2,3.9,0.8c0.8-0.4,1.7-1.7,2.7-3.8l17.9-37.7c1-2.2,1.4-3.7,1.3-4.5
			c-0.2-0.9-1.2-1.7-3.1-2.4L955,101.2z"/>
		<path d="M998.3,154.1l1.5-2.7l13.5,7.5l-1.5,2.7L998.3,154.1z"/>
		<path d="M1031,140.4l0.3-0.5l28.7,17.9l-3.9,6.3l-0.5-0.3c0.8-2.7,1.2-4.4,1-5.1c-0.2-0.7-1.1-1.5-2.7-2.6l-15.1-9.4l-12.8,20.5
			l14,8.7c1.4,0.9,2.3,1.3,2.9,1.3s1-0.3,1.3-0.8l0.5,0.3l-2.7,4.3l-0.5-0.3c0.3-0.7,0.3-1.2,0-1.7c-0.3-0.4-0.9-1-1.9-1.6
			l-14.4-8.9l-8.8,14.1c-1.3,2.1-2.1,3.8-2.3,5c-0.2,1.2,0.1,2.2,0.8,2.9c0.7,0.8,1.9,1.7,3.7,2.8l8,5c2.6,1.6,4.2,2.5,5.1,2.8
			s1.6,0.3,2.5,0.1c0.8-0.2,1.9-1.1,3.3-2.7l0.5,0.3l-3.9,6.3l-31.2-19.4l0.3-0.5c1.1,0.6,2,0.9,2.8,0.9c0.8,0,1.6-0.7,2.5-2.1
			l22.9-36.9c1-1.7,1.6-2.9,1.8-3.8C1033.3,142.3,1032.6,141.4,1031,140.4z"/>
		<path d="M1104,189.4l8.4,6.2l-0.3,0.4c-1.3-0.9-2.4-1.3-3.2-1.2c-0.9,0.1-1.9,1-3.1,2.6l-29.2,39.3l-7.2-62.2l-23.7,31.9
			c-0.8,1-1.2,1.8-1.4,2.4c-0.2,0.6-0.2,1.1-0.1,1.5c0.2,0.4,0.8,1.1,1.8,2.2l-0.3,0.4l-8.3-6.2l0.3-0.4c1.5,1.1,2.6,1.5,3.4,1.3
			c0.8-0.3,1.9-1.4,3.3-3.4l21.7-29.2c1.9-2.6,3.1-4.9,3.6-7.1c0.5-2.2-0.6-4.1-3.3-5.9l0.3-0.4l8.1,6l6.8,58.5l22.6-30.5
			c1.2-1.6,1.7-2.9,1.3-3.7c-0.3-0.8-0.9-1.5-1.9-2.2L1104,189.4z"/>
		<path d="M1119.4,202l0.4-0.4l18.3,16.6c4.6,4.2,8,7.9,10,11.1c2,3.2,3.3,6.5,3.9,9.8c0.6,3.4,0.3,6.8-0.7,10.3
			c-1.1,3.5-2.9,6.8-5.7,9.8c-2.6,2.9-5.8,5.2-9.6,6.9c-3.8,1.7-7.6,2.6-11.5,2.7c-3.9,0.1-7.4-0.5-10.4-1.9
			c-3-1.4-6.9-4.2-11.8-8.6l-18.7-17l0.4-0.4l0.5,0.4c1,0.9,2,1.1,3,0.6c1-0.5,2.5-1.8,4.3-3.8l26.4-29c2-2.2,3-3.6,3-4.4
			C1121.1,204,1120.6,203,1119.4,202z M1132.6,214.7l-6.1-5.6l-28.1,30.9c-1.8,1.9-2.8,3.7-3,5.2c-0.2,1.5,0.3,3.2,1.5,5.1
			c1.2,1.9,3.1,4,5.8,6.5c7.5,6.8,14.4,9.6,20.9,8.6c6.5-1.1,11.8-3.9,15.9-8.4c4.8-5.3,7-11.8,6.4-19.4
			C1145.3,229.9,1140.9,222.3,1132.6,214.7z"/>
		<path d="M1286.2,568.8l-0.5,0.1l-5.8-20.9c-1.1-4-1.7-7.6-1.6-10.9c0-3.3,0.8-6.8,2.4-10.6c1.6-3.8,3.9-7.2,7-10.1s6.5-4.9,10.3-6
			c4.1-1.1,8.6-1.1,13.4,0.2c4.8,1.3,9.1,3.8,12.9,7.6c3.8,3.8,6.5,8.5,8.1,14.2c1.4,5.1,1.8,10.8,1.1,17.1l-5.4,3.8l-0.1-0.5
			c1.8-2.4,3-5.4,3.7-9c0.6-3.5,0.4-7.2-0.6-11.1c-1.9-6.7-5.9-11.5-12.1-14.3c-6.2-2.9-13-3.3-20.5-1.2c-3.1,0.9-5.8,2-8,3.4
			c-2.2,1.4-4.3,3.4-6.1,5.9c-1.8,2.6-3,5.1-3.5,7.7s-0.6,5.2-0.3,8.1c0.3,2.9,0.7,5.1,1.2,6.7l0.8,2.8c1,3.1,1.8,5,2.5,5.6
			c0.7,0.7,2,0.7,3.9,0.2l7.8-2.2c1.5-0.4,2.5-1,2.8-1.8c0.4-0.8,0.3-1.7-0.1-2.9l0.5-0.1l3.7,13.4l-0.5,0.1c-0.4-1.5-1-2.4-1.7-2.8
			c-0.7-0.3-1.9-0.3-3.6,0.2l-8.1,2.3c-1.6,0.5-2.8,1-3.3,1.6c-0.6,0.6-0.7,1.5-0.4,2.7L1286.2,568.8z"/>
		<path d="M1338.7,562.5l0.5-0.1l2.7,15c0.7,3.8,1.1,6.6,1.2,8.3c0.1,1.7-0.1,3.6-0.7,5.5c-0.6,2-1.7,3.5-3.1,4.7
			c-1.5,1.2-3.4,2-5.7,2.4c-2.7,0.5-5.4,0.1-8.1-1.1c-2.7-1.2-5.2-3.1-7.4-5.8l-5.1,4.8c-1.3,1.1-4.1,3.8-8.3,8.2
			c-4.2,4.4-6.7,7.6-7.4,9.7c-0.7,2.1-0.9,4.1-0.6,5.9c0.3,1.8,1.4,3.7,3.1,5.7l-0.7,0.3c-2.9-2.5-4.7-6-5.5-10.6
			c-0.5-3.1-0.1-5.9,1.3-8.4c1.4-2.5,5.7-7.2,12.9-14.2c0-0.1,0.1-0.1,0.1-0.1l7.2-6.8l-1-4.7l-0.8-4.3l-20.2,3.6
			c-1.6,0.3-2.8,0.7-3.4,1.3c-0.6,0.6-0.8,1.6-0.5,3.3l-0.5,0.1l-2.4-13.7l0.5-0.1c0.4,1.7,0.9,2.7,1.6,3c0.7,0.3,2.1,0.3,4.1-0.1
			l42.1-7.5c1.4-0.2,2.5-0.6,3.3-1.1C1338.8,565.5,1339,564.3,1338.7,562.5z M1339.6,572.6l-24.8,4.4l1,5.5c0.8,4.4,2.4,7.4,4.8,9.2
			c2.4,1.7,5.3,2.3,8.7,1.7c3.3-0.6,6.2-2.2,8.7-4.8s3.3-6.5,2.4-11.7L1339.6,572.6z"/>
		<path d="M1323.3,655.2l-1.4-15.7l-20.9-6.3c-1.5-0.4-2.4-0.6-2.8-0.6c-0.8,0.1-1.1,0.7-1,1.9l-0.5,0l-0.7-8l0.5,0
			c0.1,1.1,0.4,1.9,1,2.6c0.6,0.7,2,1.4,4.3,2l50.7,15.1l0.1,1l-45.6,23.2c-0.2,0-1.3,0.6-3.3,1.8c-2,1.2-2.9,2.7-2.7,4.7l-0.5,0
			l-1.1-12.5l0.5,0c0.1,1.1,0.6,1.7,1.5,1.6c0.6-0.1,1.6-0.4,2.8-1.1c0.1-0.1,0.2-0.2,0.5-0.3c0.2-0.1,0.4-0.1,0.4-0.1L1323.3,655.2
			z M1323.4,639.9l1.3,14.5l17.6-8.8L1323.4,639.9z"/>
		<path d="M1353.4,678.8l0.5,0l0.2,15.3c0.1,5.5-0.5,9.4-1.7,11.9c-1.2,2.5-2.7,4.3-4.5,5.5c-1.8,1.2-4.2,1.8-7.2,1.8
			c-4.6,0.1-8-1.5-10.3-4.6c-2.3-3.1-3.5-7.4-3.5-12.7l0.5,0c0,3.4,1.1,6.2,3.2,8.3c2.1,2.1,4.9,3.1,8.3,3.1c2.7,0,5-0.6,7-1.6
			c2-1.1,3.6-2.5,4.6-4.4c1-1.9,1.5-4.8,1.5-8.6l0-3.8l-46,0.6c-2.6,0-4.1,0.3-4.6,0.9c-0.5,0.6-0.7,1.7-0.7,3.3l-0.5,0l-0.2-14.2
			l0.5,0c0,2.5,1.2,3.8,3.5,3.8l44.5-0.6c1.9,0,3.2-0.3,3.8-0.8C1353.1,681.4,1353.4,680.4,1353.4,678.8z"/>
		<path d="M1325,759.3l1.9-29.5l-20.6-1.3c-1.9-0.1-3.2-0.1-3.7,0c-0.5,0.1-1,0.5-1.4,0.9c-0.4,0.5-0.6,1.3-0.7,2.6l-0.5,0l0.9-13.9
			l0.5,0c-0.3,2.5,0.8,3.9,3.4,4l43.1,2.8c2.5,0.2,4,0.1,4.7-0.3c0.7-0.4,1.1-1.4,1.3-3.1l0.5,0l-0.9,13.9l-0.5,0
			c0-1.5-0.2-2.6-0.7-3.2c-0.5-0.6-1.4-0.9-2.9-1l-21-1.4l-1.9,29.5l19.2,1.2c2.2,0.1,3.7,0.1,4.5-0.3c0.8-0.3,1.3-1.4,1.4-3.1
			l0.5,0l-0.9,13.7l-0.5,0c0.1-1.1,0-1.9-0.2-2.4c-0.2-0.5-0.6-0.9-1.1-1.2c-0.5-0.2-1.9-0.4-4.1-0.6l-41.2-2.7
			c-2.1-0.1-3.4-0.1-4,0c-0.5,0.2-1,0.5-1.4,0.9c-0.4,0.5-0.6,1.3-0.7,2.5l-0.5,0l0.9-13.7l0.5,0c-0.1,1.5,0.1,2.5,0.7,3
			c0.6,0.5,2.2,0.9,4.9,1.1L1325,759.3z"/>
		<path d="M1348.1,793.2l-0.5-0.1c0.2-0.7,0.2-1.5,0-2.4c-0.2-0.9-0.5-1.5-1.1-1.7c-0.5-0.2-1.8-0.5-3.9-0.7l-40.9-5.2
			c-2.2-0.3-3.6-0.4-4.1-0.2c-0.5,0.1-1,0.4-1.4,0.9c-0.4,0.5-0.7,1.4-0.8,2.7l-0.5-0.1l1.8-14.2l0.5,0.1c-0.2,1.8,0,2.9,0.6,3.5
			c0.6,0.5,2.2,0.9,4.6,1.2l40.5,5.2c2.5,0.3,4.2,0.3,5.1-0.1c0.8-0.4,1.3-1.4,1.4-3.1l0.5,0.1L1348.1,793.2z"/>
		<path d="M1336,846.2l-6,0.9l0.1-0.5c6.1-4.1,9.8-9.7,11.1-16.6c1.4-7.2,0.4-13.4-3.1-18.7c-3.4-5.3-8.2-8.5-14.2-9.6
			c-3.8-0.7-8.3-0.6-13.5,0.5c-5.3,1-9.9,3.4-13.8,7c-4,3.6-6.5,8.5-7.7,14.5c-0.8,4-0.9,8-0.3,12c0.5,4.1,1.7,7.2,3.5,9.5l-0.2,0.4
			l-5-4.8c-0.1-6.2-0.2-10.2-0.1-12.1c0.1-1.8,0.4-4.2,1-7.2c2.1-11.1,6.2-18.5,12.3-22.3c6-3.8,12.6-5,19.8-3.6
			c4.8,0.9,9.2,3,13.2,6.4c4,3.3,6.8,7.5,8.5,12.6c1.7,5.1,2,10.6,0.8,16.6c-0.6,3-1.3,5.5-2.3,7.5c-1,2.1-1.9,3.8-2.7,5.1l-1.4,2.2
			C1336.1,846.1,1336.1,846.2,1336,846.2z"/>
		<path d="M1327.7,885.5l-7.2,0.7l0-0.4c0,0,0.9-0.5,2.6-1.4s3.2-2.1,4.4-3.6c1.2-1.5,2.1-3.3,2.7-5.4c1-3.5,0.7-6.6-0.7-9.3
			c-1.5-2.6-3.6-4.3-6.5-5.1c-1.9-0.5-3.7-0.5-5.4,0.1c-1.7,0.6-3.6,2.3-5.6,5c-3.3,4.8-5.6,8.1-7,9.8c-1.4,1.7-3.5,3.2-6.1,4.4
			c-2.7,1.2-5.7,1.4-9,0.5c-1.4-0.4-2.7-0.9-3.9-1.6c-1.2-0.7-2.3-1.5-3.3-2.6s-1.8-2.2-2.5-3.5c-0.7-1.3-1.1-2.5-1.4-3.7
			c-0.2-1.2-0.1-3,0.2-5.3c0.4-2.3,0.6-3.9,0.8-4.6l3.8-13.8l15.1,4.1l-0.1,0.5c-5-1.3-8.8-1.1-11.4,0.7c-2.6,1.8-4.6,5.1-5.9,9.9
			c-1.2,4.4-1.1,8.1,0.4,10.9s3.7,4.7,6.6,5.5c1.8,0.5,3.4,0.5,4.9,0c1.5-0.5,2.9-1.3,4.2-2.4c1.3-1.2,3.2-3.6,5.7-7.2
			c2.5-3.6,4.5-6,5.9-7.4c1.5-1.3,3.4-2.2,5.8-2.7c2.4-0.5,4.7-0.5,6.9,0.1c4,1.1,7,3.4,9,6.9c2,3.5,2.3,7.5,1.1,12
			c-0.5,1.7-1.2,3.6-2.1,5.5c-1,1.9-1.5,3-1.7,3.2C1327.8,885.3,1327.8,885.4,1327.7,885.5z"/>
		<path d="M1317.2,920.4l0.5,0.2l-9.2,22.9c-2.4,5.8-4.7,10.2-6.9,13.2c-2.3,3-4.9,5.4-7.9,7.1c-3,1.7-6.3,2.7-9.9,2.9
			s-7.4-0.4-11.1-1.9c-3.6-1.5-6.9-3.7-9.8-6.6c-2.9-2.9-5.1-6.2-6.6-9.9c-1.5-3.6-2.1-7.1-1.9-10.4c0.2-3.3,1.6-8,4-14l9.5-23.4
			l0.5,0.2l-0.2,0.6c-0.5,1.2-0.3,2.2,0.5,3c0.8,0.8,2.5,1.7,5.1,2.7l36.3,14.6c2.7,1.1,4.4,1.5,5.2,1.3
			C1315.9,922.7,1316.6,921.9,1317.2,920.4z M1309.8,937.2l3.1-7.7l-38.7-15.6c-2.4-1-4.4-1.3-5.9-1c-1.5,0.3-2.9,1.4-4.3,3.2
			c-1.3,1.8-2.7,4.3-4,7.7c-3.8,9.3-4,16.9-0.8,22.6c3.3,5.7,7.7,9.7,13.4,12c6.7,2.7,13.5,2.4,20.4-0.8
			C1300,954.4,1305.6,947.6,1309.8,937.2z"/>
		<path d="M1291.4,981.8l0.6,0.3l-15.3,30.2l-6.6-3.3l0.2-0.5c2.8,0.6,4.5,0.8,5.2,0.5c0.7-0.2,1.4-1.2,2.3-2.9l8-15.8l-21.5-10.9
			l-7.4,14.7c-0.7,1.5-1.1,2.4-1,3c0.1,0.5,0.4,0.9,0.9,1.2l-0.2,0.5l-4.5-2.3l0.2-0.5c0.7,0.2,1.2,0.2,1.7-0.1
			c0.4-0.3,0.9-1,1.5-2.1l7.6-15.1l-14.8-7.5c-2.2-1.1-4-1.7-5.2-1.8c-1.2-0.1-2.1,0.3-2.9,1c-0.7,0.8-1.5,2.1-2.4,3.9l-4.3,8.5
			c-1.4,2.7-2.1,4.5-2.3,5.3c-0.2,0.8-0.1,1.7,0.1,2.5c0.3,0.8,1.3,1.8,3,3l-0.2,0.5l-6.6-3.3l16.6-32.8l0.5,0.2
			c-0.5,1.1-0.7,2.1-0.6,2.8c0.1,0.8,0.8,1.5,2.3,2.3l38.7,19.6c1.8,0.9,3.1,1.4,3.9,1.4C1289.7,984.3,1290.6,983.5,1291.4,981.8z"
			/>
		<path d="M1258.6,1042.3l-7.1-1.2l0.2-0.4c0,0,1-0.2,2.9-0.7c1.9-0.5,3.6-1.2,5.2-2.3c1.5-1.1,2.9-2.6,4-4.5
			c1.9-3.2,2.4-6.2,1.7-9.1c-0.7-2.9-2.4-5.1-4.9-6.6c-1.7-1-3.4-1.4-5.2-1.3c-1.8,0.1-4,1.3-6.8,3.4c-4.4,3.8-7.5,6.4-9.4,7.7
			c-1.8,1.3-4.2,2.2-7.1,2.7c-2.9,0.5-5.8-0.1-8.9-1.9c-1.3-0.7-2.4-1.6-3.3-2.6c-1-1-1.8-2.1-2.5-3.4c-0.7-1.3-1.2-2.6-1.5-4
			c-0.3-1.4-0.5-2.7-0.3-3.9c0.1-1.2,0.6-2.9,1.6-5.1c1-2.2,1.6-3.6,2-4.2l7.3-12.4l13.5,7.9l-0.3,0.5c-4.5-2.6-8.2-3.4-11.2-2.3
			c-3,1-5.7,3.7-8.3,8.1c-2.3,3.9-3.1,7.5-2.5,10.6c0.7,3.1,2.3,5.5,4.9,7c1.6,0.9,3.2,1.4,4.7,1.3c1.5-0.1,3.1-0.5,4.7-1.3
			c1.6-0.8,4.1-2.6,7.4-5.4c3.3-2.8,5.9-4.7,7.7-5.6c1.8-0.9,3.9-1.3,6.3-1.1c2.4,0.1,4.6,0.8,6.6,1.9c3.6,2.1,5.9,5.1,6.9,9
			c1,3.9,0.3,7.8-2,11.9c-0.9,1.6-2.1,3.1-3.5,4.7c-1.4,1.6-2.2,2.5-2.5,2.6C1258.7,1042.1,1258.6,1042.2,1258.6,1042.3z"/>
		<path d="M1245.3,1064.4l-0.5-0.3c0.4-0.6,0.8-1.3,1-2.2c0.2-0.9,0.1-1.5-0.2-2c-0.4-0.4-1.5-1.2-3.2-2.4l-34.6-22.5
			c-1.9-1.2-3.1-1.9-3.6-2c-0.5-0.1-1.1,0-1.6,0.2c-0.6,0.3-1.2,1-1.9,2.1l-0.5-0.3l7.8-12l0.5,0.3c-1,1.5-1.3,2.6-1,3.4
			c0.3,0.7,1.5,1.8,3.6,3.1l34.3,22.2c2.1,1.4,3.7,2.1,4.6,2.1c0.9,0,1.8-0.7,2.7-2.2l0.5,0.3L1245.3,1064.4z"/>
		<path d="M1167.1,1082l-0.4-0.3l12.9-17.4c2.5-3.3,5-6,7.6-8c2.6-2,5.9-3.5,9.8-4.6c4-1.1,8-1.4,12.2-0.7c4.2,0.6,7.9,2.1,11,4.4
			c3.4,2.5,6.1,6.1,8.1,10.7c1.9,4.6,2.6,9.5,2,14.8c-0.6,5.3-2.7,10.4-6.2,15.1c-3.1,4.2-7.4,8-12.8,11.4l-6.3-1.9l0.3-0.4
			c3-0.1,6.1-1,9.3-2.6c3.2-1.7,6-4.1,8.4-7.3c4.1-5.6,5.4-11.7,3.8-18.4c-1.6-6.7-5.5-12.3-11.7-16.9c-2.6-1.9-5.1-3.3-7.6-4.2
			c-2.5-0.9-5.3-1.3-8.4-1.1c-3.2,0.2-5.9,0.8-8.2,2c-2.3,1.2-4.5,2.8-6.5,4.8c-2.1,2-3.6,3.7-4.5,5.1l-1.7,2.4
			c-1.8,2.7-2.8,4.5-2.9,5.5c-0.1,0.9,0.7,2,2.3,3.2l6.5,4.8c1.3,0.9,2.3,1.3,3.2,1.1c0.8-0.2,1.6-0.8,2.2-1.8l0.4,0.3l-8.3,11.2
			l-0.4-0.3c0.9-1.3,1.3-2.3,1.1-3.1s-1-1.7-2.3-2.7l-6.8-5c-1.4-1-2.5-1.6-3.3-1.6c-0.9-0.1-1.6,0.4-2.4,1.3L1167.1,1082z"/>
		<path d="M1175.3,1152.7l-7,7.7l-0.4-0.4c1-1.2,1.5-2.2,1.4-3.1c-0.1-0.9-0.8-2-2.3-3.3l-36.4-32.7l62.6-1.4l-29.6-26.6
			c-0.9-0.8-1.7-1.4-2.3-1.7c-0.6-0.3-1.1-0.3-1.5-0.2c-0.4,0.1-1.2,0.7-2.3,1.6l-0.4-0.4l6.9-7.7l0.4,0.4c-1.2,1.4-1.8,2.5-1.6,3.2
			c0.2,0.8,1.2,2,3,3.6l27.1,24.3c2.4,2.1,4.6,3.5,6.7,4.2c2.1,0.7,4.2-0.2,6.2-2.7l0.4,0.4l-6.8,7.5l-58.9,1.3l28.2,25.4
			c1.5,1.4,2.7,1.9,3.5,1.7c0.8-0.2,1.6-0.8,2.4-1.6L1175.3,1152.7z"/>
		<path d="M1141.8,1180.6l-3.8,3.5l-42.9-46.8l3.8-3.5L1141.8,1180.6z"/>
		<path d="M1115.5,1207.7l0.3,0.4l-26.8,21l-3.9-5l0.4-0.3l0.2,0.2c0.1,0,0.1,0.1,0.2,0.1c1.5,1.2,2.8,1.6,3.7,1.4s2.1-0.9,3.5-2
			l13.7-10.7l-14.6-18.7l-12.7,9.9c-1.1,0.9-1.8,1.5-2,2c-0.3,0.5-0.2,1,0.2,1.7l-0.4,0.3l-3.2-4.1l0.4-0.3c0.8,1,1.8,1,3,0
			l13.7-10.8l-13.2-16.9c-1.2-1.6-2.3-2.4-3.1-2.5c-0.8-0.1-1.9,0.3-3.1,1.3l-0.3-0.4l11.1-8.7l0.3,0.4c-1.3,1-1.9,1.9-1.9,2.7
			c0,0.8,0.4,1.6,1.1,2.5l27.2,34.8c1.1,1.4,2.1,2.3,2.9,2.5S1114.3,1208.6,1115.5,1207.7z"/>
		<path d="M1083.4,1232.9l0.3,0.5l-12.7,8.4c-3.2,2.1-5.6,3.6-7.1,4.4c-1.5,0.8-3.3,1.3-5.4,1.5c-2,0.2-3.9-0.1-5.6-1
			c-1.7-0.9-3.2-2.3-4.5-4.3c-1.5-2.3-2.3-4.9-2.3-7.9c0-3,0.8-6,2.3-9.1l-6.4-2.8c-1.5-0.8-5.1-2.2-10.8-4.4
			c-5.7-2.1-9.7-3.1-11.9-3c-2.2,0.2-4.1,0.8-5.6,1.8c-1.5,1-2.8,2.7-4,5.2l-0.6-0.5c1.1-3.6,3.6-6.7,7.5-9.3
			c2.6-1.7,5.3-2.4,8.2-2.1s8.9,2.4,18.1,6.2c0.1,0,0.1,0,0.1,0.1l9.1,4l3.9-2.8l3.6-2.4l-11.4-17.1c-0.9-1.4-1.7-2.2-2.5-2.6
			c-0.8-0.4-1.8-0.1-3.2,0.8l-0.3-0.5l11.6-7.7l0.3,0.5c-1.4,1-2.1,1.9-2.1,2.7c0,0.8,0.6,2,1.7,3.7l23.6,35.6
			c0.8,1.2,1.6,2,2.4,2.6C1080.6,1234.1,1081.8,1233.9,1083.4,1232.9z M1074.5,1237.7l-13.9-21l-4.7,3.1c-3.7,2.5-5.9,5.1-6.5,8.1
			c-0.6,2.9,0,5.8,1.9,8.7c1.8,2.8,4.4,4.8,7.8,6.1c3.4,1.3,7.3,0.5,11.7-2.4L1074.5,1237.7z"/>
		<path d="M1014.5,1277.3c-6.6,3.6-13.1,4.6-19.5,2.9c-6.4-1.7-11.3-5.6-14.6-11.6c-4.3-7.7-5.4-15.6-3.5-23.6c2-8,6.9-14.2,15-18.6
			c6.5-3.6,13-4.4,19.5-2.4s11.4,5.9,14.7,11.9c2.2,4,3.5,8.7,3.8,14.1c0.3,5.3-0.8,10.5-3.3,15.4
			C1024.1,1270.3,1020,1274.2,1014.5,1277.3z M989.4,1231.1c-3.2,1.8-6,4.4-8.2,7.9c-2.2,3.5-3.4,7.2-3.5,11.3
			c-0.1,4,0.7,7.7,2.5,10.9c2.5,4.6,6,8,10.5,10.4c4.5,2.4,9.3,3.6,14.3,3.5c5.1,0,9.2-1,12.5-2.8c4.7-2.6,7.9-6.7,9.8-12.3
			c1.9-5.6,1.4-11-1.5-16.3c-3.7-6.7-9.2-11.3-16.7-13.8C1001.7,1227.6,995.1,1227.9,989.4,1231.1z"/>
		<path d="M942.5,1310.4l-9.6,4.1l-0.2-0.5c1.4-0.7,2.3-1.4,2.6-2.2c0.3-0.8,0.1-2.1-0.7-4l-19.2-45l57.4,25.2l-15.6-36.6
			c-0.5-1.2-1-2-1.4-2.5c-0.4-0.5-0.8-0.8-1.3-0.8c-0.4-0.1-1.3,0.1-2.8,0.5l-0.2-0.5l9.5-4.1l0.2,0.5c-1.7,0.7-2.6,1.5-2.8,2.3
			c-0.2,0.8,0.3,2.3,1.2,4.6l14.3,33.5c1.3,2.9,2.7,5.1,4.3,6.7c1.6,1.5,3.9,1.6,6.8,0.2l0.2,0.5l-9.3,4l-53.9-23.6l14.9,34.9
			c0.8,1.9,1.6,2.9,2.5,3c0.8,0.1,1.8,0,2.9-0.5L942.5,1310.4z"/>
		<path d="M884.7,1332.3l0.4-7l0.5-0.2c0,0.4,0.1,0.9,0.4,1.5c0.2,0.5,0.5,0.8,0.9,0.8c0.4,0,1.1-0.1,1.9-0.4l13.3-4.4l-14.4-43.7
			c-0.6-1.8-1.1-3-1.6-3.5c-0.5-0.6-1-0.9-1.6-0.9c-0.6,0-1.4,0.2-2.5,0.5l-0.2-0.5l13.8-4.5l0.2,0.5c-1.7,0.7-2.7,1.4-2.9,2.1
			c-0.3,0.7-0.1,1.9,0.5,3.7l14.6,44.4l12.8-4.2c1.3-0.4,2.1-0.8,2.5-1.1c0.3-0.3,0.4-0.7,0.2-1.3c-0.1-0.3-0.3-0.7-0.7-1.3l0.5-0.2
			l4.5,5.4l-0.5,0.2c-0.7-0.7-1.3-1.1-1.7-1.1c-0.5,0-1.4,0.2-2.7,0.6l-33.9,11.1c-1.3,0.4-2.3,0.8-2.8,1.2c-0.5,0.4-0.8,1-0.8,1.9
			L884.7,1332.3z"/>
		<path d="M877.6,1302.5l0.8,3l-14.8,4.2l-0.8-3L877.6,1302.5z"/>
		<path d="M864.1,1335.2l0.1,0.6l-33,7.5l-1.6-7.2l0.5-0.1c1.3,2.5,2.3,4,2.9,4.3c0.6,0.4,1.8,0.3,3.7-0.1l17.3-4l-5.4-23.5
			l-16.1,3.7c-1.6,0.4-2.6,0.7-2.9,1.1s-0.5,0.9-0.4,1.5l-0.5,0.1l-1.1-4.9l0.5-0.1c0.3,0.7,0.7,1.1,1.2,1.2
			c0.5,0.1,1.3,0.1,2.5-0.2l16.5-3.8l-3.7-16.2c-0.6-2.4-1.2-4.2-1.9-5.1c-0.7-1-1.6-1.5-2.6-1.5c-1,0-2.6,0.2-4.6,0.6l-9.2,2.1
			c-2.9,0.7-4.8,1.2-5.6,1.6s-1.4,0.9-1.8,1.7c-0.4,0.7-0.6,2.1-0.4,4.2l-0.5,0.1l-1.6-7.2l35.8-8.2l0.1,0.5
			c-1.2,0.3-2.1,0.8-2.6,1.3c-0.5,0.5-0.6,1.6-0.2,3.3l9.7,42.3c0.4,1.9,0.9,3.2,1.4,3.9C861.1,1335.5,862.3,1335.7,864.1,1335.2z"
			/>
		<path d="M777.3,1351.8l-10.3,1.4l-0.1-0.5c1.6-0.3,2.6-0.7,3.1-1.4c0.5-0.7,0.7-2,0.4-4l-6.4-48.5l48.5,39.6l-5.2-39.4
			c-0.2-1.3-0.4-2.2-0.7-2.7c-0.3-0.6-0.6-1-1-1.1c-0.4-0.2-1.3-0.3-2.8-0.3l-0.1-0.5l10.2-1.4l0.1,0.5c-1.8,0.2-2.9,0.7-3.3,1.4
			c-0.4,0.7-0.4,2.3-0.1,4.8l4.8,36.1c0.4,3.2,1.2,5.7,2.3,7.6c1.1,1.9,3.3,2.5,6.5,2l0.1,0.5l-10,1.3l-45.6-37.2l5,37.6
			c0.3,2,0.8,3.2,1.6,3.6c0.8,0.3,1.7,0.5,2.9,0.3L777.3,1351.8z"/>
		<path d="M758,1353.8l0,0.5l-24.7,1.1c-6.3,0.3-11.2,0-14.9-0.8c-3.7-0.8-6.9-2.2-9.7-4.2c-2.8-2-5.1-4.6-6.8-7.8
			c-1.7-3.2-2.7-6.9-2.9-10.9c-0.2-3.9,0.5-7.8,2-11.7c1.5-3.9,3.6-7.2,6.3-10.1c2.7-2.9,5.6-4.9,8.7-6c3.1-1.1,7.9-1.9,14.4-2.2
			l25.2-1.1l0,0.5l-0.7,0c-1.3,0.1-2.2,0.6-2.5,1.7c-0.4,1.1-0.5,3-0.4,5.8l1.7,39.1c0.1,2.9,0.5,4.7,1,5.3
			C755.4,1353.7,756.4,1353.9,758,1353.8z M739.7,1354.1l8.2-0.4l-1.8-41.7c-0.1-2.6-0.6-4.6-1.6-5.8c-0.9-1.2-2.5-2.1-4.7-2.6
			c-2.2-0.5-5.1-0.6-8.7-0.5c-10.1,0.4-17,3.3-20.9,8.7c-3.8,5.3-5.6,11.1-5.4,17.2c0.3,7.2,3.4,13.3,9.2,18.3
			C719.9,1352.3,728.4,1354.6,739.7,1354.1z"/>
		<path d="M667.3,1352l-5.2-0.3l3.5-63.4l5.2,0.3L667.3,1352z"/>
		<path d="M628.9,1352.1l-0.1,0.5l-13.8-1.9c-4-0.6-6.9-1.1-8.5-1.7c-1.6-0.6-3.2-1.4-4.6-2.6c-1.4-1.2-2.5-2.7-3.4-4.7
			c-0.8-1.9-1.1-4.1-0.8-6.4c0.6-4.5,3.3-7.8,8.1-9.7c-3.7-1.2-6.4-3.2-8-6c-1.6-2.8-2.1-6-1.6-9.6c0.5-3.4,1.7-6.3,3.8-8.8
			c2.1-2.5,4.2-4.1,6.5-4.7c2.3-0.6,5.4-0.6,9.2-0.1l20.6,2.9l-0.1,0.5c-1.6-0.2-2.7,0-3.3,0.6c-0.6,0.6-1,2.3-1.4,5l-5.6,40.1
			c-0.3,1.9-0.4,3.2-0.4,4c0,0.7,0.3,1.3,0.8,1.7C627,1351.6,627.8,1351.9,628.9,1352.1z M618.4,1325l4.2,0.6l2.4-16.9
			c0.3-2.3,0.5-3.9,0.4-4.6c-0.1-0.7-0.4-1.5-0.9-2.4c-0.5-0.9-1.5-1.6-2.8-2.3c-1.4-0.7-3.4-1.2-6-1.6c-4.1-0.6-7.2,0-9.2,1.6
			c-2,1.7-3.2,4.4-3.8,8.2c-0.5,3.9-0.2,7.2,0.9,9.9s2.7,4.4,4.5,5.2C609.8,1323.5,613.3,1324.3,618.4,1325z M619.1,1350.1l3.3-23.4
			l-6.5-0.9c-4.4-0.6-7.5,0.2-9.3,2.5c-1.8,2.3-2.9,4.7-3.2,7.2c-0.4,2.7-0.1,5,0.7,6.9c0.9,2,2.3,3.5,4.3,4.8
			c2,1.2,5.1,2.1,9.2,2.7L619.1,1350.1z"/>
		<path d="M564,1312.1l15.4,3.3l12.2-18.1c0.9-1.3,1.3-2.1,1.4-2.5c0.2-0.8-0.3-1.3-1.5-1.6l0.1-0.5l7.8,1.7l-0.1,0.5
			c-1-0.2-2-0.2-2.8,0.2c-0.8,0.4-1.9,1.5-3.2,3.5l-29.4,43.9l-0.9-0.2l-8.7-50.5c0.1-0.2-0.2-1.5-0.7-3.7c-0.5-2.2-1.8-3.5-3.7-4
			l0.1-0.5l12.3,2.7l-0.1,0.5c-1.1-0.2-1.8,0.1-2,1c-0.1,0.6-0.1,1.6,0.2,3c0.1,0.1,0.1,0.3,0.1,0.5c0,0.2,0,0.4,0,0.4L564,1312.1z
			 M578.6,1316.8l-14.2-3.1l3.2,19.4L578.6,1316.8z"/>
		<path d="M491.3,1319.1l-0.2-6l0.5,0.2c3.5,6.5,8.6,10.8,15.3,12.8c7,2.1,13.3,1.8,18.9-1c5.6-2.8,9.3-7.2,11.1-13.1
			c1.1-3.7,1.5-8.1,1-13.5c-0.5-5.3-2.3-10.2-5.5-14.5c-3.2-4.3-7.7-7.4-13.6-9.2c-3.9-1.2-7.8-1.7-11.9-1.6
			c-4.1,0.1-7.4,0.9-9.8,2.5l-0.4-0.3l5.3-4.4c6.2,0.5,10.2,0.9,12,1.2c1.8,0.3,4.2,0.9,7.1,1.8c10.8,3.3,17.7,8.2,20.8,14.6
			s3.6,13.1,1.5,20.1c-1.4,4.7-4,8.9-7.7,12.5c-3.7,3.6-8.2,6-13.5,7.1c-5.3,1.1-10.8,0.8-16.5-1c-2.9-0.9-5.3-1.9-7.2-3.1
			c-1.9-1.2-3.5-2.2-4.8-3.2l-2-1.6C491.3,1319.2,491.3,1319.1,491.3,1319.1z"/>
		<path d="M476.6,1317.1l-14.2-5.9l0.2-0.5c1.5,0.7,2.7,0.9,3.6,0.7c0.9-0.3,1.7-1.5,2.7-3.7l8-19l-38.7,9.8
			c-0.8,0.2-1.2,0.4-1.3,0.7c-0.2,0.4,0.4,0.9,1.7,1.4l-0.2,0.5l-10.7-4.5l0.2-0.5c2.7,1.1,5.8,1.2,9.1,0.3l33.7-8.4l-17.5-30.2
			c0,0,0-0.1-0.1-0.1c0,0-0.1-0.1-0.1-0.1c0,0-0.1-0.1-0.1-0.1c-2.3-3.9-4.2-6.8-5.6-8.6c-1.4-1.8-2.9-3-4.6-3.7l0.2-0.5l16.9,7
			l-0.2,0.5c-1.5-0.6-2.3-0.8-2.5-0.4c-0.1,0.3,0.2,1.2,1.1,2.6l19.1,33l7.7-18.4c0.9-2.2,1.3-3.5,1.2-4.2c-0.1-0.6-0.4-1.1-0.8-1.6
			s-1.2-0.8-2.4-1.3l0.2-0.5l14.1,5.9l-0.2,0.5c-1.8-0.9-3.2-1.1-3.9-0.6c-0.8,0.5-1.6,1.8-2.5,3.9l-16.1,38.5
			c-0.9,2.2-1.3,3.7-1.1,4.6c0.2,0.9,1.3,1.6,3.2,2.3L476.6,1317.1z"/>
		<path d="M430.8,1266.2l-1.4,2.7l-13.8-6.9l1.4-2.7L430.8,1266.2z"/>
		<path d="M398.8,1281.5l-0.3,0.5l-29.5-16.5l3.6-6.5l0.5,0.3c-0.7,2.8-1,4.5-0.8,5.1c0.2,0.7,1.1,1.5,2.8,2.4l15.5,8.7l11.8-21.1
			l-14.4-8c-1.4-0.8-2.4-1.2-2.9-1.1c-0.5,0.1-0.9,0.3-1.3,0.8l-0.5-0.3l2.5-4.4l0.5,0.3c-0.2,0.7-0.2,1.2,0.1,1.7
			c0.3,0.4,0.9,0.9,2,1.5l14.8,8.2l8.1-14.5c1.2-2.2,1.9-3.9,2-5.1c0.1-1.2-0.2-2.2-0.9-2.9c-0.7-0.7-2-1.6-3.8-2.6l-8.3-4.6
			c-2.6-1.5-4.4-2.3-5.2-2.5s-1.7-0.2-2.5,0c-0.8,0.3-1.9,1.2-3.2,2.9l-0.5-0.3l3.6-6.4l32.1,17.9l-0.3,0.5
			c-1.1-0.5-2.1-0.8-2.8-0.8c-0.8,0-1.5,0.8-2.4,2.3l-21.2,37.9c-1,1.7-1.5,3-1.6,3.9C396.4,1279.7,397.2,1280.6,398.8,1281.5z"/>
		<path d="M323.5,1236l-8.6-5.8l0.3-0.5c1.3,0.8,2.4,1.2,3.3,1c0.9-0.2,1.8-1.1,2.9-2.8l27.3-40.7l10.2,61.8l22.2-33
			c0.7-1.1,1.1-1.9,1.3-2.5c0.2-0.6,0.2-1.1,0-1.5c-0.2-0.4-0.8-1.1-1.9-2.1l0.3-0.5l8.6,5.8l-0.3,0.5c-1.5-1-2.7-1.4-3.4-1.1
			c-0.7,0.3-1.8,1.5-3.2,3.5l-20.3,30.2c-1.8,2.6-2.9,5.1-3.2,7.2s0.8,4.1,3.5,5.8l-0.3,0.5l-8.4-5.6l-9.5-58.1l-21.2,31.5
			c-1.1,1.7-1.5,2.9-1.2,3.7c0.4,0.8,1,1.5,2,2.1L323.5,1236z"/>
		<path d="M307.6,1224.2l-0.3,0.4l-19-15.7c-4.8-4-8.3-7.5-10.5-10.6c-2.2-3.1-3.6-6.3-4.4-9.6c-0.7-3.4-0.7-6.8,0.2-10.4
			c0.9-3.5,2.6-6.9,5.2-10c2.5-3,5.6-5.5,9.3-7.3c3.7-1.9,7.5-3,11.4-3.3s7.4,0.1,10.5,1.4c3.1,1.2,7.1,3.9,12.1,8.1l19.5,16.1
			l-0.3,0.4l-0.5-0.4c-1-0.8-2-1-3-0.4c-1,0.6-2.4,1.9-4.1,4l-25,30.2c-1.9,2.2-2.8,3.8-2.8,4.6
			C305.7,1222.3,306.3,1223.2,307.6,1224.2z M293.8,1212l6.4,5.3l26.6-32.2c1.7-2,2.6-3.8,2.7-5.4c0.1-1.6-0.4-3.2-1.7-5
			c-1.3-1.8-3.3-3.9-6.1-6.2c-7.8-6.4-14.9-8.9-21.3-7.6c-6.4,1.4-11.6,4.4-15.5,9.1c-4.6,5.5-6.4,12.1-5.4,19.7
			C280.3,1197.5,285.1,1204.9,293.8,1212z"/>
	</g>
</g>
</svg>
